<svg width="200" height="57" viewBox="0 0 200 57" fill="none" xmlns="http://www.w3.org/2000/svg">
<path d="M106.494 9.745H100.083V41.8021H106.494V9.745Z" fill="#27C7FF"/>
<path d="M141.655 9.745H135.243V41.8021H141.655V9.745Z" fill="#27C7FF"/>
<path d="M152.82 19.3621H146.408V41.8021H152.82V19.3621Z" fill="#27C7FF"/>
<path d="M152.82 12.9507H146.408V16.1564H152.82V12.9507Z" fill="#27C7FF"/>
<path d="M88.9147 19.3621H82.5032C80.8028 19.3621 79.172 20.0376 77.9697 21.24C76.7673 22.4424 76.0918 24.0731 76.0918 25.7736V35.3907C76.0918 37.0911 76.7673 38.7219 77.9697 39.9243C79.172 41.1266 80.8028 41.8021 82.5032 41.8021H88.9147C90.6151 41.8021 92.2458 41.1266 93.4482 39.9243C94.6506 38.7219 95.3261 37.0911 95.3261 35.3907V25.7736C95.3261 24.0731 94.6506 22.4424 93.4482 21.24C92.2458 20.0376 90.6151 19.3621 88.9147 19.3621ZM88.9147 35.3907C88.9147 36.2409 88.5769 37.0563 87.9757 37.6575C87.3745 38.2587 86.5592 38.5964 85.7089 38.5964C84.8587 38.5964 84.0433 38.2587 83.4422 37.6575C82.841 37.0563 82.5032 36.2409 82.5032 35.3907V25.7736C82.5032 24.9233 82.841 24.108 83.4422 23.5068C84.0433 22.9056 84.8587 22.5678 85.7089 22.5678C86.5592 22.5678 87.3745 22.9056 87.9757 23.5068C88.5769 24.108 88.9147 24.9233 88.9147 25.7736V35.3907Z" fill="#27C7FF"/>
<path d="M124.074 19.3621H117.662C116.82 19.3617 115.986 19.5273 115.208 19.8494C114.43 20.1715 113.723 20.6437 113.128 21.2391C112.533 21.8346 112.06 22.5415 111.738 23.3196C111.416 24.0976 111.251 24.9315 111.251 25.7736V35.3907C111.251 37.0911 111.926 38.7219 113.129 39.9243C114.331 41.1266 115.962 41.8021 117.662 41.8021H124.074C125.774 41.8021 127.405 41.1266 128.607 39.9243C129.81 38.7219 130.485 37.0911 130.485 35.3907V25.7736C130.485 24.0731 129.81 22.4424 128.607 21.24C127.405 20.0376 125.774 19.3621 124.074 19.3621ZM124.074 35.3907C124.074 36.2409 123.736 37.0563 123.135 37.6575C122.534 38.2587 121.718 38.5964 120.868 38.5964C120.018 38.5964 119.203 38.2587 118.601 37.6575C118 37.0563 117.662 36.2409 117.662 35.3907V25.7736C117.662 24.9233 118 24.108 118.601 23.5068C119.203 22.9056 120.018 22.5678 120.868 22.5678C121.718 22.5678 122.534 22.9056 123.135 23.5068C123.736 24.108 124.074 24.9233 124.074 25.7736V35.3907Z" fill="#27C7FF"/>
<path d="M193.588 32.185H200V25.7736C200 24.9316 199.834 24.0979 199.512 23.32C199.19 22.5421 198.717 21.8353 198.122 21.24C197.527 20.6446 196.82 20.1724 196.042 19.8502C195.264 19.528 194.43 19.3621 193.588 19.3621H187.177C185.477 19.3621 183.846 20.0376 182.643 21.24C181.441 22.4424 180.766 24.0731 180.766 25.7736V35.3907C180.766 36.2327 180.931 37.0664 181.254 37.8442C181.576 38.6221 182.048 39.3289 182.643 39.9243C183.239 40.5196 183.946 40.9919 184.724 41.3141C185.501 41.6363 186.335 41.8021 187.177 41.8021H193.588C194.43 41.8021 195.264 41.6363 196.042 41.3141C196.82 40.9919 197.527 40.5196 198.122 39.9243C198.717 39.3289 199.19 38.6221 199.512 37.8442C199.834 37.0664 200 36.2327 200 35.3907H196.794C196.794 35.8117 196.711 36.2285 196.55 36.6175C196.389 37.0064 196.153 37.3598 195.855 37.6575C195.558 37.9552 195.204 38.1913 194.815 38.3524C194.426 38.5135 194.009 38.5964 193.588 38.5964H190.383C189.533 38.5964 188.717 38.2587 188.116 37.6575C187.515 37.0563 187.177 36.2409 187.177 35.3907V32.185H193.588ZM187.177 25.7736C187.177 24.9233 187.515 24.108 188.116 23.5068C188.717 22.9056 189.533 22.5678 190.383 22.5678C191.233 22.5678 192.048 22.9056 192.65 23.5068C193.251 24.108 193.588 24.9233 193.588 25.7736V28.9793H187.177V25.7736Z" fill="#27C7FF"/>
<path d="M170.4 19.3621V35.3907C170.4 35.8117 170.317 36.2285 170.156 36.6175C169.995 37.0064 169.759 37.3598 169.461 37.6575C169.163 37.9552 168.81 38.1913 168.421 38.3524C168.032 38.5135 167.615 38.5964 167.194 38.5964H164V19.3621H157.577V41.8021H165.643C168.605 41.8021 171.446 40.6254 173.54 38.5309C175.635 36.4364 176.811 33.5956 176.811 30.6336V19.3621H170.4Z" fill="#27C7FF"/>
<path d="M64.9225 19.3621H61.7139C60.8662 19.3629 60.0532 19.6994 59.453 20.298C58.8527 20.8967 58.5141 21.7087 58.511 22.5564V9.745H52.0996V41.8021H58.511V25.7736C58.511 24.9234 58.8488 24.108 59.45 23.5068C60.0512 22.9056 60.8665 22.5679 61.7168 22.5679C62.567 22.5679 63.3823 22.9056 63.9835 23.5068C64.5847 24.108 64.9225 24.9234 64.9225 25.7736V41.8021H71.3339V25.7736C71.3339 24.0732 70.6584 22.4424 69.456 21.24C68.2537 20.0376 66.6229 19.3621 64.9225 19.3621Z" fill="#27C7FF"/>
<path d="M58.5117 25.7736C58.5117 25.8275 58.5117 25.8814 58.5117 25.9353C58.5146 25.8814 58.5117 25.8275 58.5117 25.7736Z" fill="#27C7FF"/>
<path d="M44.1769 30.0107H41.374V35.6165H44.1769V30.0107Z" fill="#4F9FEF"/>
<path d="M41.7143 31.985L6.02286 15.6307C5.37287 15.3425 4.66139 15.2206 3.95252 15.2758C3.24365 15.3311 2.55966 15.5618 1.96219 15.9473C1.36472 16.3328 0.872546 16.8608 0.530005 17.4839C0.187464 18.107 0.00532545 18.8055 0 19.5165L0 52.1336C0 55.2136 3.52857 57.5079 6.33429 56.2279L41.5314 39.4136C45.06 37.6422 45.0143 33.4793 41.7143 31.985Z" fill="#4F9FEF"/>
<path d="M44.1769 24.405H41.374V30.0107H44.1769V24.405Z" fill="#27C7FF"/>
<path d="M41.7143 26.5764L6.02286 10.2307C5.37265 9.9424 4.66091 9.82045 3.95181 9.87584C3.24271 9.93124 2.55855 10.1623 1.96101 10.548C1.36347 10.9338 0.871338 11.4623 0.528994 12.0857C0.18665 12.7092 0.00485457 13.408 0 14.1193L0 46.7336C0 49.8164 3.52857 52.1079 6.33429 50.8422L41.5314 34.0222C45.06 32.2422 45.0143 28.0821 41.7143 26.5764Z" fill="#27C7FF"/>
<path d="M44.1769 20.3022H41.374V24.4564H44.1769V20.3022Z" fill="#DFFAFF"/>
<path d="M41.5314 24.145L6.33428 40.965C3.52857 42.245 0 39.9507 0 36.8707V41.1279C0 44.2079 3.52857 46.5022 6.33428 45.2222L41.5314 28.4022C44.2143 27.0593 44.8286 24.3336 43.5171 22.4393C43.0177 23.1735 42.3325 23.7621 41.5314 24.145Z" fill="#DFFAFF"/>
<path d="M6.02286 4.625L41.7143 20.9679C42.438 21.2864 43.062 21.7948 43.52 22.4393C44.8343 20.4564 44.1857 17.8393 41.7143 16.7107L6.02286 0.36786C5.37155 0.0790718 4.65852 -0.042788 3.94827 0.013304C3.23803 0.069396 2.55297 0.30167 1.95506 0.689115C1.35716 1.07656 0.865284 1.60695 0.523924 2.23231C0.182564 2.85767 0.00249331 3.55826 0 4.27072L0 8.51072C0.00532545 7.79972 0.187464 7.10121 0.530005 6.47814C0.872546 5.85507 1.36472 5.32701 1.96219 4.94155C2.55966 4.55608 3.24365 4.32532 3.95252 4.27007C4.66139 4.21481 5.37287 4.33678 6.02286 4.625Z" fill="#77E7EF"/>
<path d="M6.33429 40.965L41.5314 24.145C42.3336 23.7597 43.0189 23.1681 43.5171 22.4307C43.0587 21.7898 42.4359 21.2844 41.7143 20.9679L6.02286 4.62501C5.37287 4.33679 4.66139 4.21482 3.95252 4.27007C3.24365 4.32533 2.55966 4.55609 1.96219 4.94155C1.36472 5.32702 0.872545 5.85508 0.530005 6.47815C0.187464 7.10122 0.00532545 7.79973 0 8.51073L0 36.8707C0 39.9507 3.52857 42.245 6.33429 40.965Z" fill="#5FDDEF"/>
<path d="M84.4856 48.4507C84.0566 48.4686 83.646 48.6293 83.3188 48.9073C82.9916 49.1853 82.7668 49.5646 82.6799 49.985L82.0399 53.6307H80.5713L81.7427 46.9936H83.197L83.1427 47.4136C83.6363 47.1437 84.1888 46.9995 84.7513 46.9936H85.4884L85.2313 48.4507H84.4856Z" fill="#8FA7BF"/>
<path d="M95.0596 50.6393C94.8921 51.4619 94.4528 52.2043 93.8122 52.7469C93.1716 53.2895 92.3672 53.6008 91.5282 53.6307C89.8739 53.6307 88.7739 52.2907 89.0653 50.6393L89.1796 49.985C89.3424 49.1622 89.7789 48.4187 90.418 47.8755C91.0572 47.3324 91.8613 47.0215 92.6996 46.9936C94.3511 46.9936 95.4653 48.3336 95.1739 49.985L95.0596 50.6393ZM93.7139 49.985C93.756 49.7971 93.7544 49.602 93.7092 49.4147C93.6641 49.2275 93.5767 49.0531 93.4536 48.9049C93.3305 48.7567 93.1751 48.6388 92.9994 48.56C92.8236 48.4813 92.6321 48.4439 92.4396 48.4507C92.0105 48.4681 91.5996 48.6286 91.2724 48.9067C90.9451 49.1848 90.7203 49.5644 90.6339 49.985L90.5168 50.6393C90.4749 50.8265 90.4764 51.0209 90.5211 51.2074C90.5657 51.394 90.6524 51.5679 90.7745 51.7159C90.8966 51.8639 91.0508 51.9821 91.2255 52.0614C91.4002 52.1407 91.5907 52.1791 91.7825 52.1736C92.2134 52.1582 92.6267 51.9987 92.9562 51.7205C93.2857 51.4423 93.5123 51.0616 93.5996 50.6393L93.7139 49.985Z" fill="#8FA7BF"/>
<path d="M103.183 53.6307L103.258 53.2107C102.759 53.4792 102.204 53.6232 101.638 53.6307C99.9833 53.6307 98.8833 52.2907 99.1747 50.6393L99.289 49.985C99.4518 49.1622 99.8883 48.4187 100.527 47.8755C101.167 47.3324 101.971 47.0215 102.809 46.9936C103.332 46.9878 103.845 47.1337 104.286 47.4136L104.818 44.3965H106.275L104.646 53.6307H103.183ZM103.826 49.985C103.868 49.7971 103.867 49.602 103.821 49.4147C103.776 49.2275 103.689 49.0531 103.566 48.9049C103.443 48.7567 103.287 48.6388 103.112 48.56C102.936 48.4813 102.744 48.4439 102.552 48.4507C102.123 48.4685 101.711 48.6291 101.384 48.907C101.056 49.185 100.831 49.5644 100.743 49.985L100.629 50.6393C100.587 50.8265 100.589 51.0209 100.633 51.2074C100.678 51.394 100.765 51.5679 100.887 51.7159C101.009 51.8639 101.163 51.9821 101.338 52.0614C101.512 52.1407 101.703 52.1791 101.895 52.1736C102.326 52.1582 102.739 51.9987 103.068 51.7205C103.398 51.4423 103.624 51.0616 103.712 50.6393L103.826 49.985Z" fill="#8FA7BF"/>
<path d="M125.32 49.3421C125.24 49.0768 125.074 48.8455 124.849 48.6842C124.624 48.5229 124.351 48.4408 124.074 48.4507C123.645 48.4685 123.234 48.629 122.906 48.907C122.579 49.1849 122.353 49.5643 122.266 49.985L122.151 50.6393C122.11 50.8265 122.111 51.0208 122.156 51.2074C122.2 51.394 122.287 51.5679 122.409 51.7159C122.531 51.8639 122.686 51.9821 122.86 52.0614C123.035 52.1407 123.225 52.1791 123.417 52.1736C123.727 52.1652 124.029 52.0808 124.298 51.9279C124.567 51.7749 124.795 51.558 124.96 51.2964L126.177 51.925C125.852 52.4348 125.407 52.8574 124.881 53.1562C124.355 53.4549 123.765 53.6208 123.16 53.6393C121.506 53.6393 120.406 52.2993 120.697 50.6479L120.811 49.9936C120.974 49.1712 121.41 48.4281 122.049 47.885C122.687 47.3418 123.491 47.0307 124.329 47.0021C124.864 46.9822 125.39 47.1394 125.827 47.4494C126.263 47.7594 126.585 48.2047 126.743 48.7164L125.32 49.3421Z" fill="#8FA7BF"/>
<path d="M133.394 53.6307C133.141 53.6395 132.89 53.5899 132.659 53.4859C132.429 53.3819 132.225 53.2262 132.065 53.0309C131.904 52.8356 131.79 52.6059 131.732 52.3597C131.675 52.1134 131.674 51.8572 131.731 51.6107L132.286 48.4507H130.766L131.023 46.9936H132.543L133 44.3965H134.457L134 46.9936H135.494L135.24 48.4507H133.743L133.186 51.6107C133.167 51.6803 133.165 51.7532 133.18 51.8236C133.195 51.8941 133.227 51.9599 133.272 52.0157C133.318 52.0715 133.376 52.1157 133.442 52.1446C133.508 52.1736 133.579 52.1864 133.651 52.1822H134.583L134.326 53.6393L133.394 53.6307Z" fill="#8FA7BF"/>
<path d="M152.286 50.6393C152.119 51.4621 151.68 52.2048 151.039 52.7475C150.399 53.2902 149.594 53.6013 148.755 53.6307C147.103 53.6307 146 52.2907 146.292 50.6393L146.406 49.985C146.569 49.1622 147.005 48.4187 147.644 47.8755C148.284 47.3324 149.088 47.0215 149.926 46.9936C151.578 46.9936 152.695 48.3336 152.403 49.985L152.286 50.6393ZM150.949 49.985C150.991 49.7968 150.989 49.6015 150.944 49.414C150.899 49.2265 150.811 49.052 150.688 48.9037C150.564 48.7555 150.409 48.6376 150.232 48.5591C150.056 48.4805 149.865 48.4435 149.672 48.4507C149.243 48.4686 148.832 48.6293 148.505 48.9073C148.178 49.1853 147.953 49.5646 147.866 49.985L147.752 50.6393C147.71 50.8263 147.711 51.0204 147.756 51.2067C147.8 51.3931 147.887 51.5668 148.009 51.7148C148.13 51.8627 148.284 51.9809 148.459 52.0604C148.633 52.1399 148.823 52.1786 149.015 52.1736C149.446 52.1584 149.86 51.9989 150.19 51.7207C150.52 51.4426 150.747 51.0618 150.835 50.6393L150.949 49.985Z" fill="#8FA7BF"/>
<path d="M139.666 53.6307L140.835 46.9936H142.286L141.117 53.6307H139.666Z" fill="#8FA7BF"/>
<path d="M141.037 45.8536H142.494L142.749 44.3965H141.294L141.037 45.8536Z" fill="#27C7FF"/>
<path d="M76.3286 50.6393C76.1609 51.4624 75.7212 52.2051 75.08 52.7477C74.4389 53.2904 73.6337 53.6014 72.7943 53.6307C72.2769 53.637 71.7692 53.4909 71.3343 53.2107L70.8028 56.2279H69.3457L70.9743 46.9936H72.4314L72.3571 47.4136C72.8507 47.1437 73.4032 46.9995 73.9657 46.9936C75.62 46.9936 76.7343 48.3336 76.4428 49.985L76.3286 50.6393ZM74.9857 49.985C75.0278 49.7968 75.0262 49.6015 74.9809 49.414C74.9356 49.2265 74.8479 49.052 74.7245 48.9037C74.6011 48.7555 74.4454 48.6376 74.2692 48.5591C74.0931 48.4805 73.9013 48.4435 73.7086 48.4507C73.2796 48.4686 72.8689 48.6293 72.5418 48.9073C72.2146 49.1853 71.9897 49.5646 71.9028 49.985L71.7886 50.6393C71.7462 50.8264 71.7472 51.0206 71.7915 51.2072C71.8357 51.3938 71.9221 51.5678 72.044 51.7159C72.1659 51.864 72.32 51.9822 72.4947 52.0615C72.6693 52.1409 72.8597 52.1792 73.0514 52.1736C73.4827 52.1584 73.8964 51.9989 74.2264 51.7207C74.5563 51.4426 74.7835 51.0618 74.8714 50.6393L74.9857 49.985Z" fill="#8FA7BF"/>
<path d="M71.26 53.6307H69.8057L69.3457 56.2279H70.8028L71.26 53.6307Z" fill="#4F9FEF"/>
<path d="M114.128 53.6307L114.203 53.2107C113.704 53.4788 113.149 53.6229 112.583 53.6307C110.928 53.6307 109.826 52.2907 110.117 50.6393L110.76 46.9936H112.217L111.574 50.6393C111.532 50.8264 111.533 51.0206 111.577 51.2072C111.621 51.3938 111.708 51.5678 111.83 51.7159C111.951 51.864 112.106 51.9822 112.28 52.0615C112.455 52.1409 112.645 52.1792 112.837 52.1736C113.268 52.1584 113.682 51.9989 114.012 51.7207C114.342 51.4426 114.569 51.0618 114.657 50.6393L115.3 46.9936H116.757L115.586 53.6307H114.128Z" fill="#8FA7BF"/>
<path d="M160.66 53.6307L161.303 49.985C161.345 49.7968 161.344 49.6015 161.298 49.414C161.253 49.2265 161.165 49.052 161.042 48.9037C160.918 48.7555 160.763 48.6376 160.587 48.5591C160.41 48.4805 160.219 48.4435 160.026 48.4507C159.597 48.4686 159.186 48.6293 158.859 48.9073C158.532 49.1853 158.307 49.5646 158.22 49.985L157.577 53.6307H156.123L157.294 46.9936H158.749L158.674 47.4136C159.168 47.1437 159.721 46.9995 160.283 46.9936C161.937 46.9936 163.052 48.3336 162.76 49.985L162.117 53.6307H160.66Z" fill="#8FA7BF"/>
</svg>
